<svg width="720" height="520" viewBox="0 0 720 520" fill="none" xmlns="http://www.w3.org/2000/svg">
  <rect width="720" height="520" rx="36" fill="#F7FBFF"/>
  <circle cx="544" cy="132" r="88" fill="#FFD8BA"/>
  <circle cx="642" cy="418" r="110" fill="#D5EEFF"/>
  <rect x="358" y="98" width="128" height="230" rx="24" fill="#7FBC7A"/>
  <rect x="376" y="118" width="92" height="62" rx="14" fill="#F6FFF2"/>
  <rect x="384" y="190" width="78" height="14" rx="7" fill="#EAF7E8"/>
  <rect x="384" y="212" width="64" height="14" rx="7" fill="#EAF7E8"/>
  <rect x="384" y="234" width="52" height="14" rx="7" fill="#EAF7E8"/>
  <rect x="214" y="144" width="120" height="188" rx="24" fill="#FFF7D1"/>
  <rect x="228" y="162" width="92" height="50" rx="12" fill="#FFFFFF"/>
  <rect x="228" y="222" width="82" height="12" rx="6" fill="#FFEFA4"/>
  <rect x="228" y="242" width="70" height="12" rx="6" fill="#FFEFA4"/>
  <rect x="506" y="196" width="96" height="152" rx="24" fill="#FFC363"/>
  <rect x="520" y="214" width="68" height="38" rx="10" fill="#FFF8E7"/>
  <rect x="520" y="262" width="62" height="12" rx="6" fill="#FFE0A5"/>
  <rect x="520" y="282" width="48" height="12" rx="6" fill="#FFE0A5"/>
  <rect x="176" y="340" width="456" height="116" rx="28" fill="#FFFFFF" fill-opacity="0.82"/>
  <rect x="200" y="370" width="144" height="48" rx="24" fill="#0B1024"/>
  <text x="272" y="401" text-anchor="middle" fill="white" font-family="Arial, sans-serif" font-size="22" font-weight="700">Restock</text>
  <text x="382" y="388" fill="#334155" font-family="Arial, sans-serif" font-size="22" font-weight="700">Snacks / milk bread / hot pot base</text>
  <text x="382" y="416" fill="#64748B" font-family="Arial, sans-serif" font-size="18">Mock image placeholder for API product photos</text>
</svg>
